<?xml version="1.0" standalone="no"?>
<!DOCTYPE svg PUBLIC "-//W3C//DTD SVG 20010904//EN"
 "http://www.w3.org/TR/2001/REC-SVG-20010904/DTD/svg10.dtd">
<svg version="1.0" xmlns="http://www.w3.org/2000/svg"
 width="500pt" height="525pt" viewBox="0 0 500 525"
 preserveAspectRatio="xMidYMid meet">
<g transform="translate(-200,725) scale(0.100000,-0.100000)"
fill="#000000" stroke="none">
<path d="M4528 6965 c-3 -3 -27 -10 -54 -14 -47 -9 -85 -20 -149 -46 -65 -27
-102 -38 -160 -46 -33 -5 -76 -14 -95 -19 -19 -5 -103 -10 -186 -10 -229 0
-375 -35 -514 -124 -44 -28 -194 -150 -228 -185 -9 -10 -73 -60 -142 -112
-143 -107 -171 -134 -207 -205 -14 -28 -43 -70 -65 -93 -58 -64 -218 -278
-218 -294 0 -7 -4 -17 -9 -22 -13 -14 -51 -116 -51 -138 0 -21 -50 -115 -89
-167 -35 -48 -45 -64 -84 -145 -47 -96 -57 -126 -75 -230 -19 -106 -19 -159
-4 -275 6 -47 13 -110 16 -140 2 -30 10 -106 17 -168 12 -100 11 -119 -4 -176
-19 -72 -22 -161 -6 -221 5 -22 14 -62 18 -90 14 -81 68 -216 119 -297 35 -55
93 -137 105 -150 13 -13 61 -79 151 -212 45 -66 79 -124 126 -214 12 -23 26
-45 31 -48 5 -3 9 -13 9 -22 0 -41 140 -208 195 -233 11 -5 27 -13 35 -18 8
-5 35 -19 60 -31 133 -65 207 -112 278 -179 24 -23 47 -41 51 -41 5 0 11 -7
15 -15 3 -8 10 -15 15 -15 6 0 33 -14 61 -30 28 -16 59 -30 68 -30 10 0 23 -5
30 -12 6 -6 33 -15 59 -19 222 -34 262 -44 644 -164 56 -18 182 -20 212 -3 12
6 38 15 57 19 46 10 110 34 179 67 54 25 61 26 207 23 130 -2 158 0 210 18
110 38 132 47 145 56 8 6 32 19 54 30 22 11 58 31 80 45 22 13 48 29 57 35 10
5 56 37 103 70 130 91 165 110 260 148 22 8 47 18 55 22 95 39 208 155 277
283 72 134 129 215 256 362 24 28 27 32 77 116 40 67 58 110 70 172 5 23 20
70 33 105 14 34 34 91 45 127 12 36 31 90 42 120 23 59 25 66 65 210 23 81 27
115 27 230 0 120 -3 143 -27 210 -14 41 -28 84 -31 95 -3 11 -11 43 -19 70 -7
28 -20 75 -28 105 -19 71 -56 247 -77 370 -7 40 -18 72 -58 170 -5 14 -22 36
-37 50 -22 20 -37 25 -81 25 -54 0 -56 -1 -98 -49 -37 -44 -48 -50 -81 -50
-30 0 -43 6 -64 32 -39 46 -87 63 -132 48 -50 -17 -75 -47 -93 -106 -26 -88
-88 -116 -139 -62 -15 15 -27 32 -27 38 -1 19 -37 51 -77 67 -40 16 -46 16
-83 1 -29 -12 -48 -29 -67 -61 -34 -58 -76 -78 -112 -55 -42 27 -50 44 -51
107 0 52 -4 65 -29 92 -48 53 -131 53 -183 1 -26 -26 -80 -23 -106 5 -28 30
-29 85 -2 120 38 48 16 127 -49 175 -24 17 -44 22 -94 22 -59 0 -65 2 -85 30
-34 45 -29 73 22 115 30 24 47 47 53 73 17 71 -22 172 -67 172 -10 0 -32 13
-49 29 -55 51 -35 107 48 137 57 20 82 49 101 117 14 54 1 123 -26 134 -8 3
-14 11 -14 19 0 7 -7 32 -16 54 -28 70 -110 99 -280 100 -61 0 -113 -2 -116
-5z m225 -148 c23 -10 40 -30 60 -68 26 -50 26 -55 10 -66 -9 -7 -25 -13 -36
-13 -10 0 -40 -22 -66 -49 -59 -61 -78 -126 -58 -206 16 -64 39 -99 94 -137
l45 -30 -34 -37 c-19 -20 -40 -49 -46 -64 -29 -69 -2 -190 55 -243 36 -33 104
-64 129 -58 38 9 48 -9 35 -64 -25 -103 11 -192 101 -249 36 -22 48 -24 111
-20 40 3 83 7 96 9 21 3 26 -3 39 -50 20 -72 86 -132 165 -150 77 -18 155 4
195 54 15 19 33 34 41 34 8 0 30 -17 50 -38 24 -25 55 -44 93 -57 56 -18 58
-18 118 1 65 20 116 65 152 132 l17 33 42 -31 c36 -26 51 -30 107 -30 67 0
123 23 136 55 9 23 45 18 55 -7 8 -21 16 -64 42 -218 5 -30 18 -84 29 -120 24
-79 17 -89 -44 -66 -41 16 -48 16 -100 1 -163 -48 -182 -271 -29 -349 19 -9
56 -16 92 -16 58 0 60 1 111 52 28 28 54 47 59 42 30 -34 45 -326 20 -391 -6
-15 -14 -46 -19 -68 -4 -22 -18 -65 -30 -95 -12 -30 -25 -68 -30 -85 -9 -32
-28 -88 -41 -120 -17 -41 -41 -111 -49 -145 -36 -142 -70 -209 -167 -331 -41
-52 -83 -111 -94 -131 -11 -21 -24 -38 -29 -38 -14 0 -30 35 -30 67 0 32 -31
88 -63 114 -26 21 -104 32 -161 24 -45 -7 -97 -46 -129 -97 -27 -42 -23 -139
7 -186 45 -71 70 -86 139 -86 34 0 79 4 100 8 26 6 37 5 37 -3 0 -14 -58 -100
-98 -145 -48 -55 -154 -126 -188 -126 -26 0 -164 -77 -244 -136 -133 -98 -347
-224 -382 -224 -7 0 -26 -7 -42 -15 -24 -13 -63 -15 -191 -14 -132 2 -166 -1
-192 -15 -18 -9 -40 -16 -51 -16 -10 0 -27 -7 -38 -15 -10 -8 -27 -15 -37 -15
-11 0 -31 -6 -45 -14 -90 -45 -182 -56 -261 -31 -25 8 -68 20 -94 27 -69 18
-77 33 -30 55 47 22 76 75 67 122 -14 67 -131 141 -224 141 -20 0 -67 -9 -103
-21 -89 -28 -129 -73 -125 -139 l3 -45 -35 1 c-104 5 -227 62 -330 154 -82 73
-118 98 -207 143 -160 82 -181 94 -225 130 -35 28 -58 61 -94 135 -27 53 -68
130 -91 170 -24 41 -43 76 -43 78 0 3 -22 35 -50 71 -27 36 -50 72 -50 78 0 7
11 20 24 28 13 9 33 36 45 60 55 113 -8 291 -109 304 -71 10 -103 -3 -139 -54
-29 -41 -35 -45 -45 -30 -7 9 -18 35 -25 59 -7 24 -19 59 -26 78 -45 119 -53
231 -26 365 9 46 10 83 1 155 -6 52 -15 140 -19 195 -5 55 -15 136 -22 181
-10 69 -10 92 5 170 26 131 69 236 135 324 47 63 81 129 81 157 0 28 30 25 56
-6 33 -39 93 -71 134 -71 78 0 180 97 180 172 0 46 -35 120 -72 154 -34 30
-45 34 -93 34 -42 0 -55 3 -55 15 0 14 47 73 96 120 34 32 124 155 124 168 0
20 47 65 145 137 85 63 226 179 250 206 17 18 127 98 183 132 79 48 86 45 77
-32 -9 -91 5 -136 61 -185 119 -104 269 -73 345 71 25 48 24 99 -2 149 -28 57
-21 69 43 69 85 0 243 35 358 80 140 55 296 75 363 47z m-874 -123 c61 -36 80
-145 36 -214 -42 -66 -114 -88 -188 -56 -42 17 -63 42 -82 96 -29 83 12 172
90 193 34 10 114 -1 144 -19z m-1094 -918 c37 -16 75 -68 75 -103 0 -62 -60
-123 -121 -123 -39 0 -104 44 -119 81 -29 69 25 159 95 159 19 0 51 -6 70 -14z
m3719 -771 c44 -19 76 -67 76 -115 -1 -74 -57 -125 -138 -125 -49 0 -56 3 -88
37 -28 31 -34 46 -34 80 0 60 18 89 70 116 52 26 66 27 114 7z m-3844 -1133
c47 -48 52 -160 10 -230 -58 -95 -161 -16 -161 123 0 47 5 71 18 89 38 52 91
59 133 18z m3407 -376 c33 -30 37 -39 41 -93 4 -57 3 -60 -32 -91 -47 -41 -95
-50 -146 -27 -65 29 -85 58 -85 122 0 50 3 57 37 89 33 30 44 34 93 34 49 0
60 -4 92 -34z m-1954 -772 c104 -35 104 -115 0 -168 -62 -31 -178 -15 -235 33
-24 19 -24 83 0 104 49 44 155 58 235 31z"/>
<path d="M4097 5905 c-117 -44 -196 -154 -198 -276 -1 -53 18 -124 38 -140 7
-6 13 -15 13 -20 0 -25 103 -100 168 -123 147 -51 320 59 362 230 11 44 11 58
-5 110 -32 101 -80 162 -165 205 -55 29 -157 35 -213 14z m152 -61 c71 -21
131 -81 155 -154 16 -49 16 -61 5 -110 -23 -96 -124 -180 -218 -180 -107 0
-231 120 -231 223 0 90 71 188 158 219 60 21 68 21 131 2z"/>
<path d="M5030 5003 c-36 -15 -83 -59 -101 -94 -42 -83 -14 -179 68 -236 83
-56 179 -43 243 35 68 82 59 169 -24 251 -41 40 -48 43 -107 47 -35 2 -71 1
-79 -3z m115 -69 c32 -8 65 -65 65 -112 0 -32 -7 -49 -31 -77 -28 -31 -36 -35
-82 -35 -44 0 -56 5 -84 32 -28 27 -33 39 -33 78 0 45 17 82 48 108 16 12 81
16 117 6z"/>
<path d="M2955 4970 c-78 -14 -146 -68 -185 -145 -28 -56 -28 -169 1 -225 37
-70 92 -115 179 -147 72 -26 152 -10 218 44 135 110 146 273 28 401 -57 63
-149 90 -241 72z m164 -89 c42 -30 68 -70 83 -125 19 -70 0 -129 -60 -187 -55
-54 -109 -68 -186 -48 -60 15 -131 90 -141 149 -15 90 27 178 105 218 58 30
152 26 199 -7z"/>
<path d="M6476 4515 c-4 -24 -11 -47 -17 -50 -5 -4 -9 -19 -9 -34 0 -16 -7
-34 -15 -41 -8 -7 -15 -24 -15 -38 0 -14 -6 -33 -14 -41 -19 -21 -32 -101 -16
-101 14 0 36 52 45 107 3 23 13 47 21 54 8 6 14 28 14 49 0 21 7 43 15 50 16
13 21 90 6 90 -5 0 -12 -20 -15 -45z"/>
<path d="M4319 4368 c-58 -40 -91 -87 -106 -152 -25 -106 -10 -201 45 -276 43
-60 81 -81 156 -87 59 -5 62 -4 105 33 60 53 87 100 102 173 23 120 -23 239
-120 309 -61 44 -119 44 -182 0z m176 -81 c68 -72 83 -190 33 -283 -30 -57
-54 -76 -104 -82 -68 -7 -113 28 -146 118 -21 57 -22 92 -3 153 29 96 68 134
139 136 34 1 45 -5 81 -42z"/>
<path d="M5574 4375 c-53 -26 -107 -79 -136 -134 -26 -47 -25 -169 1 -219 30
-58 75 -100 140 -132 124 -62 232 -23 339 121 40 54 31 193 -17 259 -90 121
-212 160 -327 105z m206 -77 c64 -42 92 -92 93 -167 0 -83 -41 -145 -122 -185
-73 -35 -164 -7 -225 68 -32 38 -39 55 -43 103 -6 76 23 134 91 181 68 45 137
45 206 0z"/>
<path d="M6360 4183 c0 -10 -7 -31 -15 -46 -8 -15 -17 -43 -21 -63 -3 -19 -10
-37 -15 -40 -5 -3 -9 -22 -9 -43 0 -20 -7 -46 -15 -57 -8 -10 -15 -29 -15 -41
0 -12 -6 -26 -14 -30 -7 -4 -28 -30 -47 -58 -18 -27 -48 -67 -66 -88 -33 -37
-41 -57 -24 -57 11 0 121 121 121 132 0 4 13 29 28 55 16 27 37 75 47 108 10
33 21 69 26 80 25 65 49 148 44 156 -10 15 -25 10 -25 -8z"/>
<path d="M3710 3863 c-47 -9 -107 -69 -130 -131 -21 -54 -21 -59 -6 -107 27
-85 100 -147 188 -160 39 -6 56 -3 90 15 56 28 86 56 109 102 39 75 12 178
-62 241 -51 44 -104 55 -189 40z m144 -84 c58 -46 72 -122 33 -180 -31 -47
-82 -71 -132 -64 -60 9 -125 80 -125 135 0 39 46 109 81 123 8 3 37 6 65 6 38
1 58 -5 78 -20z"/>
<path d="M4990 3353 c-91 -32 -170 -149 -170 -251 0 -102 91 -213 201 -246 60
-18 65 -18 119 -1 223 70 275 314 98 458 -70 57 -158 71 -248 40z m148 -60
c136 -43 184 -214 88 -317 -60 -65 -144 -82 -219 -45 -55 28 -75 46 -98 91
-52 102 3 232 113 271 55 20 52 20 116 0z"/>
<path d="M5730 3170 c0 -5 -11 -10 -24 -10 -13 0 -37 -7 -52 -15 -16 -8 -39
-15 -51 -15 -13 0 -23 -3 -23 -8 0 -4 -17 -16 -37 -27 -20 -11 -49 -31 -63
-44 l-25 -24 25 8 c14 4 46 20 73 36 26 16 55 29 65 29 20 0 85 33 121 61 18
15 20 19 7 19 -9 0 -16 -4 -16 -10z"/>
<path d="M3620 2790 c0 -5 23 -10 51 -10 31 0 48 4 44 10 -3 6 -26 10 -51 10
-24 0 -44 -4 -44 -10z"/>
<path d="M4656 2765 c-12 -6 -50 -22 -86 -35 -36 -13 -72 -29 -81 -37 -8 -7
-29 -13 -46 -13 -30 0 -62 -23 -45 -34 9 -5 77 15 88 27 4 4 19 7 33 7 15 0
35 6 46 14 34 23 146 45 223 44 40 0 75 2 78 5 22 22 -171 42 -210 22z"/>
<path d="M4909 2759 c-10 -6 -7 -9 14 -9 29 0 35 5 14 13 -8 3 -20 1 -28 -4z"/>
</g>
</svg>
